# xmcd
#
# Track frame offsets: 
#        150
#        18737
#        39205
#        60655
#        80677
#        94945
#        113747
#        130975
#        150870
#        169309
#
# Disc length: 2507 seconds
#
# Revision: 2
# Processed by: cddbd v1.5.2PL0 Copyright (c) Steve Scherf et al.
# Submitted via: ExactAudioCopy v1.0b4
#
DISCID=7809c90a
DTITLE=林憶蓮 - I Swear
DYEAR=1996
DGENRE=Pop
TTITLE0=林憶蓮 and 張國榮 - From Now On
TTITLE1=I Will Always Love You
TTITLE2=Brave
TTITLE3=(Was It) Only Just a Dream
TTITLE4=Cuts Both Ways
TTITLE5=林憶蓮 , 齊豫 , 杜麗莎 and 劉美君 - I Swear
TTITLE6=When Can I See You
TTITLE7=In Another Life
TTITLE8=Hero
TTITLE9=I Swear (Instrumental)
EXTD=
EXTT0=
EXTT1=
EXTT2=
EXTT3=
EXTT4=
EXTT5=
EXTT6=
EXTT7=
EXTT8=
EXTT9=
PLAYORDER=
